:SAMPLES-PER-SECOND 24
:FULLY-SPECIFIED
:DEGREES
506
root  7.12069 38.8756 24.4837 6.47363 -4.81177 -9.10364
RightUpLeg  -7.35952 3.74208 -4.88864
RightLeg  30.0809 -15.3843 -9.64743
RightFoot  -11.7075 -0.0867256 -2.36931
RightToes  -2.08645e-008 3.77894e-005 6.81332e-007
Spine  2.63389 3.78909 2.09219
Spine1  7.33977 3.37731 1.62388
HEad  -34.9981 2.53214 -0.732188
LeftShoulder1  5.82047 -11.5604 -32.6417
LeftArm  -6.18713 12.023 -14.1585
LeftForeArm  90.0239 -80.0036 -87.7577
LeftHand  -0.752243 -0.797484 14.2268
RightShoulder  3.58953 6.34431 30.5465
RightArm  14.8132 -16.8089 28.6531
RightForeArm  131.544 79.2809 118.228
RightHand  -0.324386 8.83275 -3.02973
LeftUpLeg  -23.2399 10.2386 -4.47081
LeftLeg  24.2285 23.754 11.5178
LeftFoot  -7.69066 -0.106338 4.78603
LeftToes  1.24767e-006 1.47042e-008 1.32732e-009
507
root  8.02576 39.8568 23.9153 9.26282 -15.4967 -9.9342
RightUpLeg  -7.3772 -2.93297 -3.75854
RightLeg  30.973 -13.716 -8.94849
RightFoot  -9.7416 -0.0699095 -0.00322996
RightToes  -2.08645e-008 3.77894e-005 6.81332e-007
Spine  1.91658 4.14195 3.92718
Spine1  7.0249 3.98916 0.377669
HEad  -33.6239 9.1906 -3.57916
LeftShoulder1  5.94558 -11.58 -33.4187
LeftArm  -6.24221 20.3396 -18.9274
LeftForeArm  123.925 -78.1283 -122.893
LeftHand  -0.67455 -1.20627 12.0194
RightShoulder  3.7553 6.51287 31.5997
RightArm  18.2368 -19.6281 29.074
RightForeArm  144.003 77.3408 131.826
RightHand  -0.262647 9.1805 -2.47991
LeftUpLeg  -21.531 11.7032 -2.2017
LeftLeg  15.8225 31.8301 6.20931
LeftFoot  -1.02559 -0.339968 3.95385
LeftToes  1.24767e-006 1.47042e-008 1.32732e-009
508
root  8.69012 40.8248 23.1879 11.6038 -22.9713 -10.8375
RightUpLeg  -7.28469 -7.6158 -1.72701
RightLeg  33.1219 -8.68277 -6.28865
RightFoot  -3.66984 -0.325147 4.36086
RightToes  -2.08645e-008 3.77894e-005 6.81332e-007
Spine  1.29657 3.42434 3.2566
Spine1  7.0588 2.9834 1.35648
HEad  -32.6172 15.3661 -4.78516
LeftShoulder1  5.92973 -11.5239 -33.4603
LeftArm  -4.77482 25.0952 -24.9629
LeftForeArm  139.973 -76.3974 -134.444
LeftHand  -0.577486 -1.10336 10.4585
RightShoulder  3.93269 6.73777 32.513
RightArm  20.993 -21.6755 28.3325
RightForeArm  148.039 76.6049 135.433
RightHand  -0.0524103 9.24082 -0.812504
LeftUpLeg  -20.3718 8.7017 2.14876
LeftLeg  9.37476 38.4472 0.383005
LeftFoot  6.83828 -0.172358 0.851686
LeftToes  1.24767e-006 1.47042e-008 1.32732e-009
509
root  9.23976 41.3993 22.3834 12.9901 -28.3168 -10.7465
RightUpLeg  -6.34322 -11.0373 -0.540342
RightLeg  34.9318 -1.5414 -1.41049
RightFoot  2.911 -1.36533 10.9293
RightToes  -2.08645e-008 3.77894e-005 6.81332e-007
Spine  0.551687 2.44977 1.39022
Spine1  7.16335 1.68764 2.59742
HEad  -31.1788 19.8844 -5.35684
LeftShoulder1  6.04722 -11.6778 -33.8304
LeftArm  -1.20686 24.9575 -28.9975
LeftForeArm  142.952 -76.3647 -135.141
LeftHand  -0.509256 -1.01594 9.36038
RightShoulder  4.0196 6.83102 33.0079
RightArm  22.654 -24.3685 27.0509
RightForeArm  147.579 76.3785 136.087
RightHand  0.19581 9.46904 1.12367
LeftUpLeg  -20.8649 9.3421 3.2898
LeftLeg  7.74978 29.1127 -1.30302
LeftFoot  13.3133 0.130835 -0.9757
LeftToes  1.24767e-006 1.47042e-008 1.32732e-009
510
root  9.82657 41.3384 21.5431 13.6689 -33.7044 -9.70551
RightUpLeg  -5.39062 -12.3981 -0.626956
RightLeg  36.7943 5.98383 4.53057
RightFoot  4.48845 -2.75691 19.8702
RightToes  -2.08645e-008 3.77894e-005 6.81332e-007
Spine  -0.222245 1.9072 0.418095
Spine1  7.64268 1.31582 1.74037
HEad  -30.4615 23.1453 -6.88636
LeftShoulder1  6.19068 -11.8185 -34.3949
LeftArm  3.40236 21.9132 -30.3019
LeftForeArm  146.663 -76.3053 -136.149
LeftHand  -0.49701 -2.15811 7.84417
RightShoulder  4.02156 6.79694 33.1557
RightArm  23.5386 -26.8373 25.9151
RightForeArm  144.808 76.4929 135.091
RightHand  -0.00496758 9.20456 -0.436418
LeftUpLeg  -22.9957 7.79317 3.06923
LeftLeg  11.0145 14.241 0.973981
LeftFoot  14.8519 0.784716 -3.76614
LeftToes  1.24767e-006 1.47042e-008 1.32732e-009
511
root  10.4875 40.7488 20.7032 14.2812 -40.4713 -8.58051
RightUpLeg  -4.68129 -9.85344 -0.7086
RightLeg  37.2704 10.2144 7.98248
RightFoot  2.61798 -2.73579 22.2275
RightToes  -2.08645e-008 3.77894e-005 6.81332e-007
Spine  -0.103575 2.19641 0.158312
Spine1  7.2269 1.8972 0.722147
HEad  -31.859 25.5782 -9.64917
LeftShoulder1  6.13533 -11.7187 -34.2977
LeftArm  6.17103 18.7319 -31.8591
LeftForeArm  154.831 -75.7836 -139.448
LeftHand  -0.443962 -2.62939 6.64247
RightShoulder  4.00486 6.77184 33.0889
RightArm  23.9615 -28.2615 24.47
RightForeArm  146.292 76.1834 136.436
RightHand  0.028091 9.0704 -0.171148
LeftUpLeg  -25.5049 5.02365 3.99215
LeftLeg  15.3257 5.98218 2.0467
LeftFoot  10.8727 1.5233 -8.09174
LeftToes  1.24767e-006 1.47042e-008 1.32732e-009
512
root  11.2408 39.829 19.7629 13.8845 -47.9539 -6.24725
RightUpLeg  -3.21717 -5.03684 -1.20878
RightLeg  33.9014 8.34878 5.79736
RightFoot  -4.90098 -0.872435 13.4264
RightToes  -2.08645e-008 3.77894e-005 6.81332e-007
Spine  1.76416 2.84219 -1.27996
Spine1  5.38657 2.69899 0.455348
HEad  -35.1589 27.3772 -13.3271
LeftShoulder1  6.15032 -11.7404 -34.3428
LeftArm  6.80369 15.6936 -32.7395
LeftForeArm  159.873 -74.5273 -143.682
LeftHand  -0.402172 -2.44727 6.17556
RightShoulder  3.94935 6.75666 32.6048
RightArm  23.9974 -27.9027 24.1194
RightForeArm  147.866 75.6576 138.462
RightHand  0.0147395 9.25125 -0.270673
LeftUpLeg  -28.5664 7.29005 2.50621
LeftLeg  18.7246 4.73967 2.13193
LeftFoot  6.32105 1.22201 -8.03929
LeftToes  1.24767e-006 1.47042e-008 1.32732e-009
513
root  12.1902 38.6514 18.7213 12.8304 -54.2388 -3.4967
RightUpLeg  -2.64725 0.224297 -1.86215
RightLeg  29.6429 2.45517 1.29968
RightFoot  -18.0029 0.10105 4.35982
RightToes  -2.08645e-008 3.77894e-005 6.81332e-007
Spine  4.09161 2.90434 -1.26141
Spine1  4.71115 3.24433 -1.84452
HEad  -39.6082 28.7107 -18.3055
LeftShoulder1  6.66412 -12.3449 -36.0071
LeftArm  5.69826 10.7865 -30.3038
LeftForeArm  157.817 -74.1742 -144.192
LeftHand  -0.480918 -2.60939 7.19589
RightShoulder  3.91783 6.7384 32.3659
RightArm  22.5759 -23.6638 26.7753
RightForeArm  139.42 77.3547 130.604
RightHand  -0.26654 9.36198 -2.48732
LeftUpLeg  -33.6858 10.3657 -0.465163
LeftLeg  23.5297 7.92366 4.11022
LeftFoot  2.82365 0.518447 -4.26154
LeftToes  1.24767e-006 1.47042e-008 1.32732e-009
514
root  13.0969 37.7508 17.9355 13.4336 -58.265 -3.41248
RightUpLeg  -4.07167 5.64278 -1.49248
RightLeg  28.1841 -1.44594 -1.07015
RightFoot  -26.3711 0.134854 2.37834
RightToes  -2.08645e-008 3.77894e-005 6.81332e-007
Spine  5.06716 2.25345 1.57758
Spine1  6.18269 3.29864 -4.6786
HEad  -43.5787 29.5254 -22.989
LeftShoulder1  7.43726 -13.1652 -38.491
LeftArm  2.96064 6.00046 -27.1748
LeftForeArm  151.572 -76.2553 -137.358
LeftHand  -0.629997 -2.59597 9.37436
RightShoulder  4.0324 6.82349 33.16
RightArm  19.8962 -16.9513 30.1002
RightForeArm  121.889 79.9019 109.633
RightHand  -0.386123 9.05213 -3.48731
LeftUpLeg  -38.826 10.6528 -0.432782
LeftLeg  29.3281 10.9017 6.901
LeftFoot  1.28473 0.39523 -3.64364
LeftToes  1.24767e-006 1.47042e-008 1.32732e-009
515
root  13.5768 37.6568 17.545 13.3779 -60.2114 -3.18079
RightUpLeg  -4.39039 9.08507 -1.40583
RightLeg  26.403 -3.53906 -2.12395
RightFoot  -26.8045 0.0982257 2.03938
RightToes  -2.08645e-008 3.77894e-005 6.81332e-007
Spine  4.49408 1.76747 1.9595
Spine1  7.91899 2.78883 -4.45279
HEad  -44.8708 30.263 -24.5037
LeftShoulder1  7.8256 -13.533 -39.7474
LeftArm  0.800588 6.83324 -27.0837
LeftForeArm  149.784 -77.1864 -133.771
LeftHand  -0.642118 -2.25268 9.94971
RightShoulder  4.12989 6.88485 33.8656
RightArm  17.5355 -15.0533 31.7906
RightForeArm  122.026 80.2234 106.447
RightHand  -0.359275 9.63647 -3.16904
LeftUpLeg  -40.6369 10.8821 0.18173
LeftLeg  31.0772 10.5124 7.10985
LeftFoot  3.42468 0.641751 -5.13105
LeftToes  1.24767e-006 1.47042e-008 1.32732e-009
